<svg width="33" height="33" viewBox="0 0 33 33" fill="none" xmlns="http://www.w3.org/2000/svg">
<path d="M5.82236 24.4386C6.04688 23.6522 8.37937 21.3087 9.51755 20.2352L15.3355 14.3259L15.625 14.0318C15.6251 13.9872 15.5934 13.8594 15.7543 13.6485C15.8835 13.4791 15.0837 13.659 15.0837 13.659C15.0837 13.659 14.5669 13.784 14.3331 13.8179C14.1304 13.8857 13.5308 14.0183 12.745 14.2352C11.9966 14.3979 10.188 15.32 9.37723 15.7607C9.29927 15.8963 9.14336 16.2013 9.14336 16.3369C9.14336 16.4725 9.73584 17.0036 10.0321 17.2522C9.86057 17.546 9.48949 18.1268 9.37723 18.0996C9.26497 18.0725 8.5197 18.0205 8.16109 17.9979C8.08313 18.0318 7.86173 18.1268 7.5998 18.2352C7.4127 18.2352 6.52398 19.0036 6.10301 19.3878C6.02505 19.3652 5.85043 19.3132 5.77559 19.2861C5.70075 19.259 5.52612 18.7776 5.44816 18.5403C6.04064 17.7381 7.25366 16.0861 7.36592 15.8963C7.50625 15.659 7.17882 15.3539 6.94495 15.32C6.75858 15.293 6.42974 15.4201 6.19603 15.5104L6.19331 15.5115L6.10301 16.0657C5.86914 16.4047 5.33591 17.1708 5.07397 17.5234C4.81203 17.8759 4.30998 18.2352 4.0917 18.3708L3.15621 18.2352L2.92234 18.3708L2.22072 18.2352L2.31427 17.8285C2.15835 17.8737 1.84652 17.9708 1.84652 17.9979C1.84652 18.0251 1.50351 17.8963 1.332 17.8285L1.1449 16.4386C0.864255 16.0544 0.293605 15.2522 0.256185 15.1166C0.20941 14.9471 0.443283 14.6759 0.443283 14.5403C0.443283 14.4047 1.63421 13.2956 1.84652 12.8793C2.05883 12.463 4.0917 11.258 4.93364 9.48947C5.77559 7.72093 8.30141 5.65896 8.30141 5.65896L8.44174 5.28608L5.21429 3.48947C5.21429 3.43298 5.233 3.22507 5.30784 2.84541C5.38268 2.68269 7.9584 1.76066 9.23691 1.31998L11.8563 3.48947L12.4176 3.25219L10.1724 0.947101L15.2241 0.269135L16.6741 1.89625L17.1418 1.62507L16.4003 0.269135L17.9507 0.336931L19.2428 0.438494L19.8888 0.608118L20.416 0.777609L20.9224 0.946571L21.6322 1.11659L22.0999 1.25219V1.62507L21.258 2.77761L21.7257 2.9471L23.2225 1.59117L26.2161 2.9471L24.9999 4.67591L25.3741 4.9132L26.7306 3.42168C26.7774 3.42168 27.0206 3.47591 27.6193 3.69286C28.1058 3.82846 29.3812 5.08269 29.958 5.69286L27.2919 7.11659L27.6193 7.38778C28.2898 7.19569 29.5853 6.69149 30.4834 6.36606C31.2692 6.79996 31.829 8.64202 31.8758 9.48947L28.7887 10.0996L29.0693 10.3369L32.0161 10.0996L32.25 12.642L28.7887 12.9132V13.2522L32.0161 13.6251V14.0657C31.6794 14.3369 31.3145 16.0092 31.1742 16.8115L27.9 16.4725L27.8064 16.9471L30.8468 17.32V17.7607C30.5661 17.9979 29.5371 20.2352 29.35 20.1674C29.2003 20.1132 27.2295 19.8059 26.2629 19.659L26.0758 20.0996L29.35 20.8793C29.4435 20.8228 29.5371 20.7708 29.1629 21.0149C28.7887 21.259 28.165 22.5629 27.9 23.1844L25.0467 23.0149V23.3539L27.8821 23.8255C27.9154 23.7712 27.9106 23.7977 27.9 23.8285L27.8821 23.8255C27.8665 23.8511 27.8424 23.8946 27.8064 23.964C27.6942 24.181 28.1962 25.2296 28.4613 25.7268L25.9354 26.5064L26.029 26.7776L28.7419 26.3504C28.7419 26.3504 29.0621 27.5359 30.0958 28.2134C31.1294 28.8908 31.7754 32.2691 31.7754 32.2691H8.16109C7.64428 31.5917 6.58092 29.907 6.05623 29.0488C5.70643 28.4766 5.44816 27.2974 5.35462 26.6759C5.41698 26.2578 5.59784 25.2251 5.82236 24.4386Z" fill="url(#paint0_linear_5_60)"/>
<path d="M15.3355 14.3259L15.625 14.0318M15.625 14.0318L9.51755 20.2352C8.37937 21.3087 6.04688 23.6522 5.82236 24.4386C5.59784 25.2251 5.41698 26.2578 5.35462 26.6759C5.44816 27.2974 5.70643 28.4766 6.05623 29.0488C6.58092 29.907 7.64428 31.5917 8.16109 32.2691H31.7754C31.7754 32.2691 31.1294 28.8908 30.0958 28.2134C29.0621 27.536 28.7419 26.3504 28.7419 26.3504L26.029 26.7776L25.9354 26.5064L28.4613 25.7268C28.1962 25.2296 27.6942 24.181 27.8064 23.964C27.9187 23.7471 27.9156 23.7833 27.9 23.8285L25.0467 23.3539V23.0149L27.9 23.1844C28.165 22.5629 28.7887 21.259 29.1629 21.0149C29.5371 20.7708 29.4435 20.8228 29.35 20.8793L26.0758 20.0996L26.2629 19.659C27.2295 19.8059 29.2003 20.1132 29.35 20.1674C29.5371 20.2352 30.5661 17.9979 30.8468 17.7607C30.8468 17.5166 30.8468 17.3652 30.8468 17.32L27.8064 16.9471L27.9 16.4725L31.1742 16.8115C31.3145 16.0092 31.6794 14.3369 32.0161 14.0657C32.0161 13.8759 32.0161 13.6929 32.0161 13.6251L28.7887 13.2522V12.9132L32.25 12.642L32.0161 10.0996L29.0693 10.3369L28.7887 10.0996L31.8758 9.48947C31.829 8.64202 31.2692 6.79996 30.4834 6.36606C29.5853 6.69149 28.2898 7.19569 27.6193 7.38778L27.2919 7.11659L29.958 5.69286C29.3812 5.08269 28.1058 3.82846 27.6193 3.69286C27.0206 3.47591 26.7774 3.42168 26.7306 3.42168L25.3741 4.9132L24.9999 4.67591L26.2161 2.9471L23.2225 1.59117L21.7257 2.9471L21.258 2.77761L22.0999 1.62507V1.25219L21.6322 1.11659L20.9224 0.946571L20.416 0.777609L19.8888 0.608118L19.2428 0.438494L17.9507 0.336931L16.4003 0.269135L17.1418 1.62507L16.6741 1.89625L15.2241 0.269135L10.1724 0.947101L12.4176 3.25219L11.8563 3.48947L9.23691 1.31998C7.9584 1.76066 5.38268 2.68269 5.30784 2.84541C5.233 3.22507 5.21429 3.43298 5.21429 3.48947L8.44174 5.28608L8.30141 5.65896C8.30141 5.65896 5.77559 7.72094 4.93364 9.48947C4.0917 11.258 2.05883 12.463 1.84652 12.8793C1.63421 13.2956 0.443283 14.4047 0.443283 14.5403C0.443283 14.6759 0.20941 14.9471 0.256185 15.1166C0.293605 15.2522 0.864255 16.0544 1.1449 16.4386L1.332 17.8285C1.50351 17.8963 1.84652 18.0251 1.84652 17.9979C1.84652 17.9708 2.15835 17.8737 2.31427 17.8285L2.22072 18.2352L2.92234 18.3708L3.15621 18.2352L4.0917 18.3708C4.30998 18.2352 4.81203 17.8759 5.07397 17.5234C5.33591 17.1708 5.86914 16.4047 6.10301 16.0657L6.19331 15.5115C6.42718 15.4211 6.75785 15.2929 6.94495 15.32C7.17882 15.3539 7.50625 15.659 7.36592 15.8963C7.25366 16.0861 6.04064 17.7381 5.44816 18.5403C5.52612 18.7776 5.70075 19.259 5.77559 19.2861C5.85043 19.3132 6.02505 19.3652 6.10301 19.3878C6.52398 19.0036 7.4127 18.2352 7.5998 18.2352C7.86173 18.1268 8.08313 18.0318 8.16109 17.9979C8.5197 18.0205 9.26497 18.0725 9.37723 18.0996C9.48949 18.1268 9.86057 17.546 10.0321 17.2522C9.73584 17.0036 9.14336 16.4725 9.14336 16.3369C9.14336 16.2013 9.29927 15.8963 9.37723 15.7607C10.188 15.32 11.9966 14.3979 12.745 14.2352C13.5308 14.0183 14.1304 13.8857 14.3331 13.8179C14.5669 13.784 15.0837 13.659 15.0837 13.659C15.0837 13.659 15.8835 13.4791 15.7543 13.6485C15.5934 13.8594 15.6251 13.9872 15.625 14.0318Z" stroke="black" stroke-width="0.5"/>
<defs>
<linearGradient id="paint0_linear_5_60" x1="-0.654416" y1="1.96272" x2="48.0139" y2="29.8092" gradientUnits="userSpaceOnUse">
<stop stop-color="white"/>
<stop offset="0.273707" stop-color="#5D5D5D"/>
<stop offset="0.547415"/>
</linearGradient>
</defs>
</svg>
